#N canvas 1144 262 865 709 12;
#X text 158 445 LFO out;
#N canvas 0 50 450 250 (subpatch) 0;
#X array \$0-waveShape 67 float 5;
#A 0 -0.0980171 0 0.0980171 0.19509 0.290284 0.382683 0.471396 0.55557
0.634393 0.707106 0.77301 0.831469 0.881921 0.923879 0.95694 0.980785
0.995185 1 0.995185 0.980786 0.956941 0.92388 0.881922 0.831471 0.773012
0.707108 0.634395 0.555572 0.471399 0.382686 0.290287 0.195093 0.0980197
2.65359e-006 -0.0980144 -0.195088 -0.290282 -0.382681 -0.471394 -0.555568
-0.634391 -0.707104 -0.773008 -0.831468 -0.88192 -0.923878 -0.956939
-0.980785 -0.995184 -1 -0.995185 -0.980786 -0.956942 -0.923881 -0.881923
-0.831472 -0.773013 -0.70711 -0.634397 -0.555574 -0.471401 -0.382688
-0.29029 -0.195095 -0.0980223 -5.30718e-006 0.0980118;
#X coords 0 1 66 -1 200 140 1;
#X restore 39 530 graph;
#X obj 330 494 select 0 1 2 3 4;
#X floatatom 405 443 5 0 4 0 waveSelect - -;
#X msg 330 625 sinesum 64 1;
#X obj 314 650 s \$0-waveShape;
#X msg 351 601 sinesum 64 -0.5 -0.25 -0.167 -0.125 -0.062 -0.0331 -0.015
-0.0071, f 67;
#X msg 373 576 sinesum 64 0.5 0.25 0.167 0.125 0.062 0.0331 0.015 0.007
;
#X msg 395 554 sinesum 64 1 0 0.333 0 0.2 0 0.143 0 0.111 0 0.0909
;
#X msg 417 531 sinesum 64 0.5 0 -0.0556 0 0.02 0 -0.0102 0 0.00615
;
#X obj 256 570 loadbang;
#X obj 102 445 outlet~;
#X text 488 446 https://designingsound.org/2013/04/18/pure-data-wavetable-synth-part-6/
, f 36;
#X obj 108 387 tabread4~ \$0-waveShape;
#X obj 113 330 t b;
#X obj 335 221 delay;
#X obj 335 245 bng 15 250 50 0 empty empty empty 17 7 0 10 -262144
-1 -1;
#X msg 143 93 1000;
#X msg 187 93 500;
#X obj 335 196 spigot;
#X obj 369 171 tgl 15 0 empty empty empty 17 7 0 10 -262144 -1 -1 0
1;
#X msg 324 171 1;
#X text 232 92 frequency (and start for now);
#X text 154 362 reading wave shape;
#X obj 137 123 t b b b f f f;
#X text 388 169 stop;
#X text 363 242 make it loop/oscillate;
#X obj 107 362 vline~;
#X obj 243 126 hsl 128 15 0 64 0 0 empty empty phase -2 -8 0 10 -262144
-1 -1 0 1;
#X obj 138 213 int;
#X obj 169 212 / 64;
#X obj 210 212 *;
#X obj 106 214 t b;
#X obj 102 266 pack f f f f f;
#X obj 145 237 - 1;
#X obj 242 212 -;
#X obj 209 235 t b;
#X msg 102 291 \$2 0 \, 64 \$5 0 \, 0 0 \$5 \, \$3 \$4 \$5;
#X obj 123 41 inlet;
#X text 109 18 start /frequency;
#X obj 257 36 inlet;
#X text 259 14 stop;
#X connect 2 0 4 0;
#X connect 2 1 6 0;
#X connect 2 2 7 0;
#X connect 2 3 8 0;
#X connect 2 4 9 0;
#X connect 3 0 2 0;
#X connect 4 0 5 0;
#X connect 6 0 5 0;
#X connect 7 0 5 0;
#X connect 8 0 5 0;
#X connect 9 0 5 0;
#X connect 10 0 4 0;
#X connect 13 0 11 0;
#X connect 14 0 19 0;
#X connect 15 0 16 0;
#X connect 15 0 33 0;
#X connect 17 0 24 0;
#X connect 18 0 24 0;
#X connect 19 0 15 0;
#X connect 20 0 19 1;
#X connect 21 0 20 0;
#X connect 24 0 21 0;
#X connect 24 1 33 0;
#X connect 24 2 15 0;
#X connect 24 3 15 1;
#X connect 24 4 31 0;
#X connect 24 5 35 0;
#X connect 27 0 13 0;
#X connect 28 0 29 0;
#X connect 29 0 30 0;
#X connect 29 0 32 0;
#X connect 29 0 33 1;
#X connect 29 0 34 0;
#X connect 30 0 31 1;
#X connect 31 0 33 3;
#X connect 31 0 35 1;
#X connect 31 0 36 0;
#X connect 32 0 31 0;
#X connect 33 0 37 0;
#X connect 34 0 33 2;
#X connect 35 0 33 4;
#X connect 36 0 35 0;
#X connect 37 0 27 0;
#X connect 37 0 14 0;
#X connect 38 0 24 0;
#X connect 40 0 20 0;
