#N canvas 201 144 817 803 12;
#X text 653 560 LFO out;
#N canvas 0 50 450 250 (subpatch) 0;
#X array \$0-waveShape 67 float 5;
#A 0 -0.0980171 0 0.0980171 0.19509 0.290284 0.382683 0.471396 0.55557
0.634393 0.707106 0.77301 0.831469 0.881921 0.923879 0.95694 0.980785
0.995185 1 0.995185 0.980786 0.956941 0.92388 0.881922 0.831471 0.773012
0.707108 0.634395 0.555572 0.471399 0.382686 0.290287 0.195093 0.0980197
2.65359e-006 -0.0980144 -0.195088 -0.290282 -0.382681 -0.471394 -0.555568
-0.634391 -0.707104 -0.773008 -0.831468 -0.88192 -0.923878 -0.956939
-0.980785 -0.995184 -1 -0.995185 -0.980786 -0.956942 -0.923881 -0.881923
-0.831472 -0.773013 -0.70711 -0.634397 -0.555574 -0.471401 -0.382688
-0.29029 -0.195095 -0.0980223 -5.30718e-006 0.0980118;
#X coords 0 1 66 -1 200 140 1;
#X restore 61 335 graph;
#X obj 110 600 select 0 1 2 3 4;
#X floatatom 185 549 5 0 4 0 waveSelect - -;
#X msg 110 731 sinesum 64 1;
#X obj 94 756 s \$0-waveShape;
#X msg 131 707 sinesum 64 -0.5 -0.25 -0.167 -0.125 -0.062 -0.0331 -0.015
-0.0071, f 67;
#X msg 153 682 sinesum 64 0.5 0.25 0.167 0.125 0.062 0.0331 0.015 0.007
;
#X msg 175 660 sinesum 64 1 0 0.333 0 0.2 0 0.143 0 0.111 0 0.0909
;
#X msg 197 637 sinesum 64 0.5 0 -0.0556 0 0.02 0 -0.0102 0 0.00615
;
#X obj 36 676 loadbang;
#X obj 597 560 outlet~;
#X text 268 552 https://designingsound.org/2013/04/18/pure-data-wavetable-synth-part-6/
, f 36;
#X obj 361 500 tabread4~ \$0-waveShape;
#X obj 371 440 t b;
#X obj 615 328 delay;
#X obj 615 352 bng 15 250 50 0 empty empty empty 17 7 0 10 -262144
-1 -1;
#X obj 659 328 spigot;
#X obj 551 54 tgl 15 0 empty empty empty 17 7 0 10 -262144 -1 -1 0
1;
#X text 407 475 reading wave shape;
#X obj 347 286 t b b b f f f;
#X text 634 351 make it loop/oscillate, f 14;
#X obj 360 475 vline~;
#X obj 418 150 hsl 128 15 0 64 0 0 empty empty phase -2 -8 0 10 -262144
-1 -1 2400 1;
#X obj 377 318 int;
#X obj 420 319 / 64;
#X obj 461 319 *;
#X obj 345 319 t b;
#X obj 360 376 pack f f f f f;
#X obj 384 342 - 1;
#X obj 530 319 -;
#X obj 497 318 t b;
#X msg 360 401 \$2 0 \, 64 \$5 0 \, 0 0 \$5 \, \$3 \$4 \$5;
#X obj 173 144 expr 1000 / ($f1 / 60);
#X obj 612 227 sel 1;
#X obj 612 251 t b;
#X obj 612 275 bng 15 250 50 0 empty empty empty 17 7 0 10 -262144
-1 -1;
#X floatatom 173 100 5 0 0 0 - - -;
#X text 195 119 bpm to milliseconds;
#X obj 419 85 *;
#X msg 424 53 1;
#X msg 463 53 0.5;
#X obj 467 86 t b;
#X text 431 28 subdivisions;
#X obj 107 33 loadbang;
#X msg 104 69 60;
#X text 567 52 start/stop;
#X text 403 257 phase shift;
#X connect 2 0 4 0;
#X connect 2 1 6 0;
#X connect 2 2 7 0;
#X connect 2 3 8 0;
#X connect 2 4 9 0;
#X connect 3 0 2 0;
#X connect 4 0 5 0;
#X connect 6 0 5 0;
#X connect 7 0 5 0;
#X connect 8 0 5 0;
#X connect 9 0 5 0;
#X connect 10 0 4 0;
#X connect 13 0 11 0;
#X connect 14 0 17 0;
#X connect 15 0 16 0;
#X connect 15 0 28 0;
#X connect 17 0 15 0;
#X connect 18 0 17 1;
#X connect 18 0 34 0;
#X connect 20 3 15 1;
#X connect 20 4 26 0;
#X connect 20 5 30 0;
#X connect 22 0 13 0;
#X connect 23 0 24 0;
#X connect 24 0 25 0;
#X connect 24 0 27 0;
#X connect 24 0 28 1;
#X connect 24 0 29 0;
#X connect 25 0 26 1;
#X connect 26 0 28 3;
#X connect 26 0 30 1;
#X connect 26 0 31 0;
#X connect 27 0 26 0;
#X connect 28 0 32 0;
#X connect 29 0 28 2;
#X connect 30 0 28 4;
#X connect 31 0 30 0;
#X connect 32 0 22 0;
#X connect 32 0 14 0;
#X connect 33 0 39 0;
#X connect 34 0 35 0;
#X connect 35 0 36 0;
#X connect 35 0 28 0;
#X connect 35 0 15 0;
#X connect 37 0 33 0;
#X connect 39 0 20 0;
#X connect 40 0 39 1;
#X connect 40 0 42 0;
#X connect 41 0 39 1;
#X connect 41 0 42 0;
#X connect 42 0 39 0;
#X connect 44 0 40 0;
#X connect 44 0 45 0;
#X connect 45 0 37 0;
