#N canvas 213 26 575 758 12;
#X obj 277 110 +~;
#X obj 265 250 +~;
#X obj 258 313 +~;
#X obj 191 516 outlet~;
#X obj 212 77 / 127;
#X obj 181 76 *~;
#X obj 26 36 hsl 60 30 0 127 0 0 empty empty volume -2 -8 0 10 -228856
-1 -1 0 1;
#X obj 217 151 / 127;
#X obj 186 150 *~;
#X obj 26 86 hsl 60 30 0 127 0 0 empty empty volume -2 -8 0 10 -228856
-1 -1 0 1;
#X obj 219 208 / 127;
#X obj 188 207 *~;
#X obj 26 136 hsl 60 30 0 127 0 0 empty empty volume -2 -8 0 10 -228856
-1 -1 0 1;
#X obj 216 279 / 127;
#X obj 185 278 *~;
#X obj 26 186 hsl 60 30 0 127 0 0 empty empty volume -2 -8 0 10 -228856
-1 -1 0 1;
#X obj 26 236 hsl 60 15 0 127 0 0 empty empty offset -2 -8 0 10 -162280
-1 -1 0 1;
#X obj 193 416 expr~ if(($v1 + (($f2 / 62) - 1)) > 0 \, 1 \, 0), f
15;
#X obj 259 485 outlet~;
#X text 187 539 channel 1 out + gate, f 13;
#X obj 192 348 expr~ $v1 / ($v2 + $v3 + $v4 + $v5 + 0.0001), f 16
;
#X obj 182 25 inlet~;
#X obj 232 25 inlet~;
#X obj 282 25 inlet~;
#X obj 332 25 inlet~;
#X text 383 28 < LFO's in;
#X connect 0 0 2 0;
#X connect 1 0 2 1;
#X connect 2 0 20 0;
#X connect 4 0 5 1;
#X connect 4 0 20 1;
#X connect 5 0 0 0;
#X connect 6 0 4 0;
#X connect 7 0 8 1;
#X connect 7 0 20 2;
#X connect 8 0 0 1;
#X connect 9 0 7 0;
#X connect 10 0 11 1;
#X connect 10 0 20 3;
#X connect 11 0 1 0;
#X connect 12 0 10 0;
#X connect 13 0 14 1;
#X connect 13 0 20 4;
#X connect 14 0 1 1;
#X connect 15 0 13 0;
#X connect 16 0 17 1;
#X connect 17 0 18 0;
#X connect 20 0 17 0;
#X connect 20 0 3 0;
#X connect 21 0 5 0;
#X connect 22 0 8 0;
#X connect 23 0 11 0;
#X connect 24 0 14 0;
#X coords 0 -1 1 1 70 235 2 20 20;
