#N canvas 1072 115 761 797 12;
#X text 691 630 LFO out;
#N canvas 0 50 450 250 (subpatch) 0;
#X array \$0-waveShape 67 float 5;
#A 0 -0.0980171 0 0.0980171 0.19509 0.290284 0.382683 0.471396 0.55557
0.634393 0.707106 0.77301 0.831469 0.881921 0.923879 0.95694 0.980785
0.995185 1 0.995185 0.980786 0.956941 0.92388 0.881922 0.831471 0.773012
0.707108 0.634395 0.555572 0.471399 0.382686 0.290287 0.195093 0.0980197
2.65359e-006 -0.0980144 -0.195088 -0.290282 -0.382681 -0.471394 -0.555568
-0.634391 -0.707104 -0.773008 -0.831468 -0.88192 -0.923878 -0.956939
-0.980785 -0.995184 -1 -0.995185 -0.980786 -0.956942 -0.923881 -0.881923
-0.831472 -0.773013 -0.70711 -0.634397 -0.555574 -0.471401 -0.382688
-0.29029 -0.195095 -0.0980223 -5.30718e-006 0.0980118;
#X coords 0 1 66 -1 200 140 1;
#X restore 47 411 graph;
#X obj 158 593 select 0 1 2 3 4;
#X msg 158 724 sinesum 64 1;
#X obj 142 749 s \$0-waveShape;
#X msg 179 700 sinesum 64 -0.5 -0.25 -0.167 -0.125 -0.062 -0.0331 -0.015
-0.0071, f 67;
#X msg 201 675 sinesum 64 0.5 0.25 0.167 0.125 0.062 0.0331 0.015 0.007
;
#X msg 223 653 sinesum 64 1 0 0.333 0 0.2 0 0.143 0 0.111 0 0.0909
;
#X msg 245 630 sinesum 64 0.5 0 -0.0556 0 0.02 0 -0.0102 0 0.00615
;
#X obj 84 721 loadbang;
#X obj 635 630 outlet~;
#X text 267 745 https://designingsound.org/2013/04/18/pure-data-wavetable-synth-part-6/
, f 36;
#X obj 357 586 tabread4~ \$0-waveShape;
#X obj 368 534 t b;
#X obj 610 512 delay;
#X obj 610 536 bng 15 250 50 0 empty empty empty 17 7 0 10 -262144
-1 -1;
#X obj 654 512 spigot;
#X obj 609 372 tgl 30 0 empty empty empty 17 7 0 10 -262144 -1 -1 0
1;
#X text 416 556 reading wave shape;
#X obj 415 338 t b b b f f f;
#X text 629 535 make it loop/oscillate, f 14;
#X obj 356 561 vline~;
#X obj 377 408 int;
#X obj 414 410 / 64;
#X obj 455 410 *;
#X obj 339 410 t b;
#X obj 356 480 pack f f f f f;
#X obj 378 433 - 1;
#X obj 524 410 -;
#X obj 491 409 t b;
#X msg 356 505 \$2 0 \, 64 \$5 0 \, 0 0 \$5 \, \$3 \$4 \$5;
#X obj 610 440 sel 1;
#X obj 610 464 t b;
#X obj 610 488 bng 15 250 50 0 empty empty empty 17 7 0 10 -262144
-1 -1;
#X obj 438 231 *;
#X msg 443 199 1;
#X msg 482 199 0.5;
#X obj 486 232 t b;
#X text 450 174 subdivisions;
#X obj 438 141 loadbang;
#X text 603 408 start/stop;
#X text 420 380 phase shift;
#X obj 388 380 / 2;
#X obj 18 695 f;
#X obj 53 694 + 1;
#X obj 18 719 mod 5;
#X text 4 642 wave select pad;
#X obj 111 61 inlet;
#X obj 51 61 inlet;
#X text 47 25 wave select, f 6;
#X text 101 27 subivition select, f 10;
#X text 525 27 BPM milli;
#X obj 192 54 inlet;
#X text 191 27 phase;
#X text 247 33 start/stop;
#X obj 521 51 r BPM;
#X floatatom 521 75 5 0 0 0 - - -;
#X floatatom 111 85 5 0 0 0 - - -;
#X floatatom 192 78 5 0 0 0 - - -;
#X floatatom 51 85 5 0 0 0 - - -;
#X obj 250 57 r StartStop;
#X obj 250 81 tgl 15 0 empty empty empty 17 7 0 10 -262144 -1 -1 0
1;
#X floatatom 185 185 5 0 0 0 - - -;
#X obj 147 208 int;
#X floatatom 178 212 5 0 0 0 - - -;
#X obj 221 160 ctlin 1 1;
#X text 147 124 subivition select, f 10;
#X obj 83 161 hsl 128 15 0 127 0 0 empty empty empty -2 -8 0 10 -262144
-1 -1 0 1;
#X msg 96 268 4;
#X msg 55 268 8;
#X msg 64 299 6;
#X msg 102 297 3;
#X obj 147 183 / 10;
#X msg 170 266 1;
#X msg 131 268 2;
#X msg 207 266 0.5;
#X msg 172 295 0.75;
#X msg 138 297 1.5;
#X obj 69 235 sel 0 1 2 3 4 5 6 7 8 9 10 11 12;
#X msg 242 264 0.25;
#X msg 283 265 0.125;
#X msg 219 295 0.375;
#X msg 272 297 0.1875;
#X floatatom 655 194 5 0 0 0 - - -;
#X obj 617 217 int;
#X floatatom 648 221 5 0 0 0 - - -;
#X msg 639 273 1;
#X msg 569 275 2;
#X msg 712 273 0.5;
#X msg 671 272 0.75;
#X msg 605 274 1.5;
#X obj 617 241 sel 0 1 2 3 4;
#X obj 617 192 / 25;
#X text 617 154 subivition select, f 10;
#X connect 2 0 3 0;
#X connect 2 1 5 0;
#X connect 2 2 6 0;
#X connect 2 3 7 0;
#X connect 2 4 8 0;
#X connect 3 0 4 0;
#X connect 5 0 4 0;
#X connect 6 0 4 0;
#X connect 7 0 4 0;
#X connect 8 0 4 0;
#X connect 9 0 3 0;
#X connect 12 0 10 0;
#X connect 13 0 16 0;
#X connect 14 0 15 0;
#X connect 14 0 26 0;
#X connect 16 0 14 0;
#X connect 17 0 16 1;
#X connect 17 0 31 0;
#X connect 19 3 14 1;
#X connect 19 4 24 0;
#X connect 19 5 28 0;
#X connect 21 0 12 0;
#X connect 22 0 23 0;
#X connect 22 0 25 0;
#X connect 22 0 26 1;
#X connect 22 0 27 0;
#X connect 23 0 24 1;
#X connect 24 0 26 3;
#X connect 24 0 28 1;
#X connect 24 0 29 0;
#X connect 25 0 24 0;
#X connect 26 0 30 0;
#X connect 27 0 26 2;
#X connect 28 0 26 4;
#X connect 29 0 28 0;
#X connect 30 0 21 0;
#X connect 30 0 13 0;
#X connect 31 0 32 0;
#X connect 32 0 33 0;
#X connect 32 0 26 0;
#X connect 32 0 14 0;
#X connect 34 0 19 0;
#X connect 35 0 34 1;
#X connect 35 0 37 0;
#X connect 36 0 34 1;
#X connect 36 0 37 0;
#X connect 37 0 34 0;
#X connect 39 0 35 0;
#X connect 42 0 22 0;
#X connect 43 0 44 0;
#X connect 43 0 45 0;
#X connect 44 0 43 1;
#X connect 45 0 2 0;
#X connect 47 0 57 0;
#X connect 47 0 72 0;
#X connect 48 0 59 0;
#X connect 48 0 43 0;
#X connect 52 0 58 0;
#X connect 52 0 42 0;
#X connect 55 0 56 0;
#X connect 55 0 34 0;
#X connect 60 0 61 0;
#X connect 60 0 17 0;
#X connect 63 0 64 0;
#X connect 63 0 78 0;
#X connect 65 0 72 0;
#X connect 67 0 72 0;
#X connect 68 0 34 1;
#X connect 68 0 37 0;
#X connect 69 0 34 1;
#X connect 69 0 37 0;
#X connect 70 0 34 1;
#X connect 70 0 37 0;
#X connect 71 0 34 1;
#X connect 71 0 37 0;
#X connect 72 0 62 0;
#X connect 72 0 63 0;
#X connect 73 0 34 1;
#X connect 73 0 37 0;
#X connect 74 0 34 1;
#X connect 74 0 37 0;
#X connect 75 0 34 1;
#X connect 75 0 37 0;
#X connect 76 0 34 1;
#X connect 76 0 37 0;
#X connect 77 0 34 1;
#X connect 77 0 37 0;
#X connect 78 0 69 0;
#X connect 78 1 70 0;
#X connect 78 2 68 0;
#X connect 78 3 71 0;
#X connect 78 4 74 0;
#X connect 78 5 77 0;
#X connect 78 6 73 0;
#X connect 78 7 76 0;
#X connect 78 8 75 0;
#X connect 78 9 81 0;
#X connect 78 10 79 0;
#X connect 78 11 82 0;
#X connect 78 12 80 0;
#X connect 79 0 34 1;
#X connect 79 0 37 0;
#X connect 80 0 34 1;
#X connect 80 0 37 0;
#X connect 81 0 34 1;
#X connect 81 0 37 0;
#X connect 82 0 34 1;
#X connect 82 0 37 0;
#X connect 84 0 85 0;
#X connect 84 0 91 0;
#X connect 91 0 87 0;
#X connect 91 1 90 0;
#X connect 91 2 86 0;
#X connect 91 3 89 0;
#X connect 91 4 88 0;
#X connect 92 0 83 0;
#X connect 92 0 84 0;
