#N canvas 196 281 1030 690 12;
#X text 525 616 LFO out;
#N canvas 0 50 450 250 (subpatch) 0;
#X array \$0-waveShape 64 float 5;
#A 0 1 0.96876 0.93752 0.90628 0.87504 0.8438 0.81256 0.78132 0.75008
0.71884 0.6876 0.65636 0.62512 0.59388 0.56264 0.5314 0.50016 0.46892
0.43768 0.40644 0.3752 0.34396 0.31272 0.28148 0.25024 0.219 0.18776
0.15652 0.12528 0.09404 0.0628 0.03156 0.000320017 -0.03092 -0.06216
-0.0934 -0.12464 -0.15588 -0.18712 -0.21836 -0.2496 -0.28084 -0.31208
-0.34332 -0.37456 -0.4058 -0.43704 -0.46828 -0.49952 -0.53076 -0.562
-0.59324 -0.62448 -0.65572 -0.68696 -0.7182 -0.74944 -0.78068 -0.81192
-0.84316 -0.8744 -0.90564 -0.93688 -1;
#X coords 0 1 63 -1 200 140 1;
#X restore 45 464 graph;
#X obj 469 616 outlet~;
#X text 145 622 https://designingsound.org/2013/04/18/pure-data-wavetable-synth-part-6/
, f 36;
#X obj 342 563 tabread4~ \$0-waveShape;
#X obj 353 511 t b;
#X obj 595 489 delay;
#X obj 595 513 bng 15 250 50 0 empty empty empty 17 7 0 10 -262144
-1 -1;
#X obj 639 489 spigot;
#X obj 594 349 tgl 30 0 empty empty empty 17 7 0 10 -262144 -1 -1 0
1;
#X text 401 533 reading wave shape;
#X obj 400 315 t b b b f f f;
#X text 614 512 make it loop/oscillate, f 14;
#X obj 341 538 vline~;
#X obj 362 385 int;
#X obj 399 387 / 64;
#X obj 440 387 *;
#X obj 324 387 t b;
#X obj 341 457 pack f f f f f;
#X obj 505 383 -;
#X obj 476 386 t b;
#X obj 595 417 sel 1;
#X obj 595 441 t b;
#X obj 595 465 bng 15 250 50 0 empty empty empty 17 7 0 10 -262144
-1 -1;
#X obj 423 208 *;
#X msg 428 176 1;
#X msg 467 176 0.5;
#X obj 471 209 t b;
#X text 435 151 subdivisions;
#X obj 379 28 loadbang;
#X text 588 385 start/stop;
#X text 405 357 phase shift;
#X obj 373 357 / 2;
#X text 510 4 BPM milli;
#X text 599 20 start/stop;
#X obj 506 28 r BPM;
#X floatatom 506 52 5 0 0 0 - - -;
#X obj 602 44 r StartStop;
#X obj 602 68 tgl 15 0 empty empty empty 17 7 0 10 -262144 -1 -1 0
1;
#X floatatom 169 163 5 0 0 0 - - -;
#X obj 132 185 int;
#X floatatom 163 189 5 0 0 0 - - -;
#X obj 206 137 ctlin 1 1;
#X text 122 117 subivition select, f 10;
#X msg 81 245 4;
#X msg 40 245 8;
#X msg 49 276 6;
#X msg 87 274 3;
#X obj 132 160 / 10;
#X msg 155 243 1;
#X msg 116 245 2;
#X msg 192 243 0.5;
#X msg 157 272 0.75;
#X msg 123 274 1.5;
#X obj 54 212 sel 0 1 2 3 4 5 6 7 8 9 10 11 12;
#X msg 227 241 0.25;
#X msg 268 242 0.125;
#X msg 204 272 0.375;
#X msg 257 274 0.1875;
#X floatatom 640 171 5 0 0 0 - - -;
#X obj 602 194 int;
#X floatatom 633 198 5 0 0 0 - - -;
#X msg 624 250 1;
#X msg 554 252 2;
#X msg 697 250 0.5;
#X msg 656 249 0.75;
#X msg 590 251 1.5;
#X obj 602 218 sel 0 1 2 3 4;
#X obj 602 169 / 25;
#X text 602 131 subivition select, f 10;
#X floatatom 276 447 5 0 0 0 - - -;
#X obj 377 411 - 1;
#X obj 56 406 s \$0-waveShape;
#N canvas 223 134 1108 737 waveSelect 0;
#X text 990 554 sine;
#X text 469 191 saw;
#X text 468 519 triangle;
#X text 460 375 ramp;
#X text 1004 221 square 1/4 pulse, f 9;
#X text 1005 160 square 1/8 pulse, f 9;
#X text 1012 332 square 3/4 pulse, f 9;
#X text 1005 390 square 7/8 pulse, f 9;
#X text 1009 270 square 1/2 pulse, f 9;
#X obj 181 83 loadbang;
#X obj 319 73 f;
#X obj 354 72 + 1;
#X text 305 20 wave select;
#X obj 319 122 select 0 1 2 3 4 5 6 7 8, f 56;
#X obj 63 51 inlet;
#X text 69 27 bang for select;
#X obj 429 679 outlet;
#X text 429 702 msg out for waveShape array;
#X obj 319 97 mod 9;
#X msg 35 318 0 -1 -0.96876 -0.93752 -0.90628 -0.87504 -0.8438 -0.81256
-0.78132 -0.75008 -0.71884 -0.6876 -0.65636 -0.62512 -0.59388 -0.56264
-0.5314 -0.50016 -0.46892 -0.43768 -0.40644 -0.3752 -0.34396 -0.31272
-0.28148 -0.25024 -0.219 -0.18776 -0.15652 -0.12528 -0.09404 -0.0628
-0.03156 -0.000320017 0.03092 0.06216 0.0934 0.12464 0.15588 0.18712
0.21836 0.2496 0.28084 0.31208 0.34332 0.37456 0.4058 0.43704 0.46828
0.49952 0.53076 0.562 0.59324 0.62448 0.65572 0.68696 0.7182 0.74944
0.78068 0.81192 0.84316 0.8744 0.90564 0.93688 1;
#X msg 37 159 0 1 0.96876 0.93752 0.90628 0.87504 0.8438 0.81256 0.78132
0.75008 0.71884 0.6876 0.65636 0.62512 0.59388 0.56264 0.5314 0.50016
0.46892 0.43768 0.40644 0.3752 0.34396 0.31272 0.28148 0.25024 0.219
0.18776 0.15652 0.12528 0.09404 0.0628 0.03156 0.000320017 -0.03092
-0.06216 -0.0934 -0.12464 -0.15588 -0.18712 -0.21836 -0.2496 -0.28084
-0.31208 -0.34332 -0.37456 -0.4058 -0.43704 -0.46828 -0.49952 -0.53076
-0.562 -0.59324 -0.62448 -0.65572 -0.68696 -0.7182 -0.74944 -0.78068
-0.81192 -0.84316 -0.8744 -0.90564 -0.93688 -1;
#X msg 35 487 0 0.06248 0.12496 0.18744 0.24992 0.3124 0.37488 0.43736
0.49984 0.56232 0.6248 0.68728 0.74976 0.81224 0.87472 0.9372 0.99968
0.93784 0.87536 0.81288 0.7504 0.68792 0.62544 0.56296 0.50048 0.438
0.37552 0.31304 0.25056 0.18808 0.1256 0.06312 0.000640035 -0.0618401
-0.12432 -0.1868 -0.24928 -0.31176 -0.37424 -0.43672 -0.4992 -0.56168
-0.62416 -0.68664 -0.74912 -0.8116 -0.87408 -0.93656 -0.99904 -0.93848
-0.876 -0.81352 -0.75104 -0.68856 -0.62608 -0.5636 -0.50112 -0.43864
-0.37616 -0.31368 -0.2512 -0.18872 -0.12624 -0.06376 -0.05;
#X msg 543 152 0 1 1 1 1 1 1 1 1 -1 -1 -1 -1 -1 -1 -1 -1 -1 -1 -1 -1
-1 -1 -1 -1 -1 -1 -1 -1 -1 -1 -1 -1 -1 -1 -1 -1 -1 -1 -1 -1 -1 -1 -1
-1 -1 -1 -1 -1 -1 -1 -1 -1 -1 -1 -1 -1 -1 -1 -1 -1 -1 -1 -1 -1, f
63;
#X msg 544 209 0 1 1 1 1 1 1 1 1 1 1 1 1 1 1 1 1 -1 -1 -1 -1 -1 -1
-1 -1 -1 -1 -1 -1 -1 -1 -1 -1 -1 -1 -1 -1 -1 -1 -1 -1 -1 -1 -1 -1 -1
-1 -1 -1 -1 -1 -1 -1 -1 -1 -1 -1 -1 -1 -1 -1 -1 -1 -1 -1, f 63;
#X msg 544 262 0 1 1 1 1 1 1 1 1 1 1 1 1 1 1 1 1 1 1 1 1 1 1 1 1 1
1 1 1 1 1 1 1 -1 -1 -1 -1 -1 -1 -1 -1 -1 -1 -1 -1 -1 -1 -1 -1 -1 -1
-1 -1 -1 -1 -1 -1 -1 -1 -1 -1 -1 -1 -1 -1, f 63;
#X msg 549 326 0 1 1 1 1 1 1 1 1 1 1 1 1 1 1 1 1 1 1 1 1 1 1 1 1 1
1 1 1 1 1 1 1 1 1 1 1 1 1 1 1 1 1 1 1 1 1 1 1 -1 -1 -1 -1 -1 -1 -1
-1 -1 -1 -1 -1 -1 -1 -1 -1, f 63;
#X msg 552 385 0 1 1 1 1 1 1 1 1 1 1 1 1 1 1 1 1 1 1 1 1 1 1 1 1 1
1 1 1 1 1 1 1 1 1 1 1 1 1 1 1 1 1 1 1 1 1 1 1 1 1 1 1 1 1 1 1 -1 -1
-1 -1 -1 -1 -1 -1, f 63;
#X msg 554 482 0 0 0.0980171 0.19509 0.290284 0.382683 0.471396 0.55557
0.634393 0.707106 0.77301 0.831469 0.881921 0.923879 0.95694 0.980785
0.995185 1 0.995185 0.980786 0.956941 0.92388 0.881922 0.831471 0.773012
0.707108 0.634395 0.555572 0.471399 0.382686 0.290287 0.195093 0.0980197
2.65359e-006 -0.0980144 -0.195088 -0.290282 -0.382681 -0.471394 -0.555568
-0.634391 -0.707104 -0.773008 -0.831468 -0.88192 -0.923878 -0.956939
-0.980785 -0.995184 -1 -0.995185 -0.980786 -0.956942 -0.923881 -0.881923
-0.831472 -0.773013 -0.70711 -0.634397 -0.555574 -0.471401 -0.382688
-0.29029 -0.195095 -0.0980223;
#X msg 181 107 0;
#X obj 666 682 outlet;
#X text 663 704 f for waveShape nr, f 20;
#X connect 9 0 28 0;
#X connect 10 0 11 0;
#X connect 10 0 18 0;
#X connect 11 0 10 1;
#X connect 13 0 20 0;
#X connect 13 1 19 0;
#X connect 13 2 22 0;
#X connect 13 3 23 0;
#X connect 13 4 24 0;
#X connect 13 5 25 0;
#X connect 13 6 26 0;
#X connect 13 7 21 0;
#X connect 13 8 27 0;
#X connect 14 0 10 0;
#X connect 18 0 13 0;
#X connect 18 0 29 0;
#X connect 19 0 16 0;
#X connect 20 0 16 0;
#X connect 21 0 16 0;
#X connect 22 0 16 0;
#X connect 23 0 16 0;
#X connect 24 0 16 0;
#X connect 25 0 16 0;
#X connect 26 0 16 0;
#X connect 27 0 16 0;
#X connect 28 0 10 0;
#X restore 54 356 pd waveSelect;
#X text 63 321 wave msg select for waveShape array, f 19;
#X msg 341 482 \$2 0 \, 64 \$5 0 \, 0 0 \$5 \, \$3 \$4 \$5;
#X obj 41 32 bng 30 250 50 0 empty empty wave 0 -8 0 10 -262130 -1
-1;
#X obj 80 32 hsl 60 30 0 127 0 0 empty empty subdivition -2 -8 0 10
-262130 -1 -1 2927 1;
#X obj 151 32 hsl 60 30 0 127 0 0 empty empty phase -2 -8 0 10 -262130
-1 -1 0 1;
#X floatatom 24 23 1 0 0 0 - - -;
#X msg 337 31 63;
#X connect 4 0 2 0;
#X connect 5 0 8 0;
#X connect 6 0 7 0;
#X connect 6 0 18 0;
#X connect 8 0 6 0;
#X connect 9 0 8 1;
#X connect 9 0 21 0;
#X connect 11 3 6 1;
#X connect 11 4 16 0;
#X connect 11 5 19 0;
#X connect 13 0 4 0;
#X connect 14 0 15 0;
#X connect 14 0 17 0;
#X connect 14 0 18 1;
#X connect 14 0 71 0;
#X connect 15 0 16 1;
#X connect 16 0 18 3;
#X connect 16 0 19 1;
#X connect 16 0 20 0;
#X connect 17 0 16 0;
#X connect 18 0 75 0;
#X connect 19 0 18 4;
#X connect 20 0 19 0;
#X connect 21 0 22 0;
#X connect 22 0 23 0;
#X connect 22 0 18 0;
#X connect 22 0 6 0;
#X connect 24 0 11 0;
#X connect 25 0 24 1;
#X connect 25 0 27 0;
#X connect 26 0 24 1;
#X connect 26 0 27 0;
#X connect 27 0 24 0;
#X connect 29 0 25 0;
#X connect 29 0 80 0;
#X connect 32 0 14 0;
#X connect 35 0 36 0;
#X connect 35 0 24 0;
#X connect 37 0 38 0;
#X connect 37 0 9 0;
#X connect 40 0 41 0;
#X connect 40 0 54 0;
#X connect 42 0 48 0;
#X connect 44 0 24 1;
#X connect 44 0 27 0;
#X connect 45 0 24 1;
#X connect 45 0 27 0;
#X connect 46 0 24 1;
#X connect 46 0 27 0;
#X connect 47 0 24 1;
#X connect 47 0 27 0;
#X connect 48 0 39 0;
#X connect 48 0 40 0;
#X connect 49 0 24 1;
#X connect 49 0 27 0;
#X connect 50 0 24 1;
#X connect 50 0 27 0;
#X connect 51 0 24 1;
#X connect 51 0 27 0;
#X connect 52 0 24 1;
#X connect 52 0 27 0;
#X connect 53 0 24 1;
#X connect 53 0 27 0;
#X connect 54 0 45 0;
#X connect 54 1 46 0;
#X connect 54 2 44 0;
#X connect 54 3 47 0;
#X connect 54 4 50 0;
#X connect 54 5 53 0;
#X connect 54 6 49 0;
#X connect 54 7 52 0;
#X connect 54 8 51 0;
#X connect 54 9 57 0;
#X connect 54 10 55 0;
#X connect 54 11 58 0;
#X connect 54 12 56 0;
#X connect 55 0 24 1;
#X connect 55 0 27 0;
#X connect 56 0 24 1;
#X connect 56 0 27 0;
#X connect 57 0 24 1;
#X connect 57 0 27 0;
#X connect 58 0 24 1;
#X connect 58 0 27 0;
#X connect 60 0 61 0;
#X connect 60 0 67 0;
#X connect 67 0 63 0;
#X connect 67 1 66 0;
#X connect 67 2 62 0;
#X connect 67 3 65 0;
#X connect 67 4 64 0;
#X connect 68 0 59 0;
#X connect 68 0 60 0;
#X connect 71 0 70 0;
#X connect 71 0 18 2;
#X connect 73 0 72 0;
#X connect 73 1 79 0;
#X connect 75 0 13 0;
#X connect 75 0 5 0;
#X connect 76 0 73 0;
#X connect 77 0 48 0;
#X connect 78 0 32 0;
#X connect 80 0 77 0;
#X coords 0 -1 1 1 195 45 2 20 20;
