#N canvas 31 233 761 467 12;
#X obj 27 165 LFOSequencer_Mixer-Test01;
#X obj 20 92 s StartStop;
#X obj 23 27 tgl 50 0 empty empty start/stop -12 -8 0 13 -260097 -1
-1 0 1;
#X obj 198 113 s BPM;
#X obj 198 82 expr 1000 / ($f1 / 60);
#X floatatom 198 38 5 0 0 0 - - -;
#X text 220 57 bpm to milliseconds;
#X obj 279 37 loadbang;
#X msg 243 39 84;
#X connect 2 0 1 0;
#X connect 4 0 3 0;
#X connect 5 0 4 0;
#X connect 7 0 8 0;
#X connect 8 0 5 0;
