#N canvas 31 233 542 685 12;
#X obj 16 14 LFOSequencer_MasterControl;
#X obj 16 403 Voice_FM02-TestSub;
#X obj 16 648 dac~;
#X obj 16 109 LFOSequencer_Mixer-Test;
#X connect 1 0 2 0;
#X connect 1 0 2 1;
#X connect 3 0 1 0;
#X connect 3 2 1 1;
#X connect 3 4 1 2;
