#N canvas 144 51 392 899 12;
#X obj 43 668 *~;
#X obj 55 452 t b b;
#X msg 55 476 1 \, 0 100;
#X obj 55 500 line~;
#X obj 37 554 *~;
#X obj 159 514 line~;
#X obj 141 568 *~;
#X obj 141 402 noise~;
#X msg 159 490 1 \, 0 200;
#X obj 141 426 hip~ 3000;
#X obj 44 616 +~;
#X obj 55 524 pow~ 4;
#X obj 159 538 pow~ 4;
#X text 12 320 Basic snare: osc + filtered noise \, both own env,
f 27;
#X obj 35 266 threshold~ 0.5 10 0.6 10, f 13;
#X obj 141 368 r StartStop;
#X obj 43 695 *~;
#X text 70 748 https://www.youtube.com/watch?v=nxnCkns-zMo;
#X obj 35 428 osc~ 200;
#X obj 141 450 bp~ 5000 2;
#X obj 84 307 bng 15 250 50 0 empty empty empty 17 7 0 10 -262144 -1
-1;
#X obj 65 162 hsl 60 30 0 127 0 0 empty empty volume -2 -8 0 10 -260097
-1 -1 0 1;
#X obj 65 112 hsl 60 30 0 127 0 0 empty empty amp_mod -2 -8 0 10 -262144
-1 -1 0 1;
#X obj 41 12 inlet~;
#X obj 136 16 inlet~;
#X obj 97 212 tgl 30 0 empty empty mute 0 -7 0 11 -260097 -1 -1 0 1
;
#X text 53 71 ^trig;
#X text 103 71 ^amp;
#X obj 114 617 expr $f1 / 127;
#X obj 114 642 expr~ 1 - (((($v1 * -1 ) + 1) / 2) * $v2), f 16;
#X obj 113 704 expr $f1 / 200;
#X obj 44 640 *~;
#X obj 43 792 outlet~;
#X text 42 818 audio out;
#X connect 0 0 16 0;
#X connect 1 0 2 0;
#X connect 1 1 8 0;
#X connect 2 0 3 0;
#X connect 3 0 11 0;
#X connect 4 0 10 0;
#X connect 5 0 12 0;
#X connect 6 0 10 0;
#X connect 7 0 9 0;
#X connect 8 0 5 0;
#X connect 9 0 19 0;
#X connect 10 0 31 0;
#X connect 11 0 4 1;
#X connect 12 0 6 1;
#X connect 14 0 1 0;
#X connect 14 0 20 0;
#X connect 15 0 25 0;
#X connect 16 0 32 0;
#X connect 18 0 4 0;
#X connect 19 0 6 0;
#X connect 21 0 30 0;
#X connect 22 0 28 0;
#X connect 23 0 14 0;
#X connect 24 0 29 0;
#X connect 25 0 16 1;
#X connect 28 0 29 1;
#X connect 29 0 31 1;
#X connect 30 0 0 1;
#X connect 31 0 0 0;
#X coords 0 -1 1 1 90 200 1 50 50;
