#N canvas 144 51 1012 899 12;
#X obj 97 570 cos~;
#X obj 97 546 -~ 0.25;
#X obj 96 518 *~ 20;
#X obj 96 494 sqrt~;
#X obj 448 681 hsl 60 30 0 127 0 0 empty empty volume -2 -8 0 10 -262144
-1 -1 5900 1;
#X obj 445 715 / 1270;
#X obj 431 746 *~;
#X obj 115 605 hsl 60 30 0 127 0 0 empty empty volume -2 -8 0 10 -262144
-1 -1 3800 1;
#X obj 112 639 / 1270;
#X obj 98 670 *~;
#X obj 431 800 +~;
#X obj 429 865 dac~;
#X obj 96 424 bng 15 250 50 0 empty empty empty 17 7 0 10 -262144 -1
-1;
#X msg 96 444 0 \, 1 200;
#X obj 96 468 line~;
#X obj 403 436 bng 15 250 50 0 empty empty empty 17 7 0 10 -262144
-1 -1;
#X text 71 393 basic kick: line into cos = wave shape, f 22;
#X text 146 515 < frequency;
#X text 167 444 pitch env;
#X obj 401 479 t b b;
#X msg 401 503 1 \, 0 100;
#X obj 401 527 line~;
#X obj 381 455 osc~ 200;
#X obj 383 581 *~;
#X obj 500 551 line~;
#X obj 482 605 *~;
#X obj 482 439 noise~;
#X msg 500 527 1 \, 0 200;
#X obj 482 463 hip~ 3000;
#X obj 482 487 bp~ 5000 2;
#X obj 431 639 +~;
#X obj 401 551 pow~ 4;
#X obj 500 575 pow~ 4;
#X obj 724 740 hsl 60 30 0 127 0 0 empty empty volume -2 -8 0 10 -262144
-1 -1 5900 1;
#X obj 721 774 / 1270;
#X obj 707 805 *~;
#X obj 806 571 bng 15 250 50 0 empty empty empty 17 7 0 10 -262144
-1 -1;
#X msg 806 591 1 \, 0 500;
#X obj 806 615 line~;
#X obj 806 639 pow~ 4;
#X obj 705 427 phasor~ 350;
#X obj 705 452 expr~ ($v1 *2) -1, f 10;
#X obj 793 451 expr~ ($v1 *2) -1, f 10;
#X obj 793 426 phasor~ 800;
#X obj 704 560 +~;
#X obj 797 504 noise~;
#X obj 797 528 *~ 0.25;
#X obj 704 584 hip~ 8000;
#X obj 704 608 hip~ 8000;
#X obj 704 632 hip~ 8000;
#X obj 704 676 *~;
#X obj 704 700 *~ 4;
#X text 370 395 Basic snare: osc + filtered noise \, both own env,
f 27;
#X text 707 390 hi-hat: hpfilter saws + noise \, one env, f 22;
#X text 652 384 ||||||||||||||||||||||||||||||||, f 1;
#X text 260 389 ||||||||||||||||||||||||||||||||, f 1;
#X obj 171 18 LFOSequencer_Mixer-Test;
#X obj 781 57 LFOSequencer_MasterControl;
#X obj 98 342 threshold~ 0.5 10 0.6 10, f 13;
#X obj 393 341 threshold~ 0.5 10 0.6 10, f 13;
#X obj 718 330 threshold~ 0.5 10 0.6 10, f 13;
#X obj 500 826 r StartStop;
#X obj 429 837 *~;
#X obj 500 850 tgl 15 0 empty empty empty 17 7 0 10 -262144 -1 -1 1
1;
#X connect 0 0 9 0;
#X connect 1 0 0 0;
#X connect 2 0 1 0;
#X connect 3 0 2 0;
#X connect 4 0 5 0;
#X connect 5 0 6 1;
#X connect 6 0 10 0;
#X connect 7 0 8 0;
#X connect 8 0 9 1;
#X connect 9 0 10 0;
#X connect 10 0 62 0;
#X connect 12 0 13 0;
#X connect 13 0 14 0;
#X connect 14 0 3 0;
#X connect 15 0 19 0;
#X connect 19 0 20 0;
#X connect 19 1 27 0;
#X connect 20 0 21 0;
#X connect 21 0 31 0;
#X connect 22 0 23 0;
#X connect 23 0 30 0;
#X connect 24 0 32 0;
#X connect 25 0 30 0;
#X connect 26 0 28 0;
#X connect 27 0 24 0;
#X connect 28 0 29 0;
#X connect 29 0 25 0;
#X connect 30 0 6 0;
#X connect 31 0 23 1;
#X connect 32 0 25 1;
#X connect 33 0 34 0;
#X connect 34 0 35 1;
#X connect 35 0 10 0;
#X connect 36 0 37 0;
#X connect 37 0 38 0;
#X connect 38 0 39 0;
#X connect 39 0 50 1;
#X connect 40 0 41 0;
#X connect 41 0 44 0;
#X connect 42 0 44 0;
#X connect 43 0 42 0;
#X connect 44 0 47 0;
#X connect 45 0 46 0;
#X connect 46 0 44 0;
#X connect 47 0 48 0;
#X connect 48 0 49 0;
#X connect 49 0 50 0;
#X connect 50 0 51 0;
#X connect 51 0 35 0;
#X connect 56 1 58 0;
#X connect 56 3 59 0;
#X connect 56 5 60 0;
#X connect 58 0 12 0;
#X connect 59 0 15 0;
#X connect 60 0 36 0;
#X connect 61 0 63 0;
#X connect 62 0 11 1;
#X connect 62 0 11 0;
#X connect 63 0 62 1;
