#N canvas 649 58 624 899 12;
#X text 57 342 https://www.youtube.com/watch?v=nxnCkns-zMo;
#X obj 65 202 hsl 60 30 0 127 0 0 empty empty volume -2 -8 0 10 -260097
-1 -1 700 1;
#X obj 144 645 r StartStop;
#X obj 60 701 *~;
#X obj 59 584 cos~;
#X obj 59 560 -~ 0.25;
#X obj 58 508 sqrt~;
#X obj 38 439 bng 15 250 50 0 empty empty empty 17 7 0 10 -262144 -1
-1;
#X obj 59 483 line~;
#X text 39 376 basic kick: line into cos = wave shape, f 22;
#X text 130 459 pitch env;
#X obj 59 419 threshold~ 0.5 10 0.6 10, f 13;
#X obj 59 532 *~;
#X obj 65 102 hsl 60 30 0 127 0 0 empty empty pitch -2 -8 0 10 -262144
-1 -1 929 1;
#X obj 205 508 expr ($f1 / 4) + 15;
#X obj 205 532 snapshot~;
#X floatatom 205 556 5 0 0 0 - - -;
#X obj 313 484 loadbang;
#X msg 280 485 20;
#X obj 59 608 lop~ 1000;
#X text 90 534 < pitch;
#X msg 59 460 0 \, 1 200;
#X obj 65 152 hsl 60 30 0 127 0 0 empty empty amp_mod -2 -8 0 10 -262144
-1 -1 0 1;
#X obj 255 661 expr $f1 / 127;
#X obj 59 678 *~;
#X obj 255 686 expr~ 1 - (((($v1 * -1 ) + 1) / 2) * $v2), f 16;
#X obj 59 652 *~;
#X obj 41 12 inlet~;
#X obj 136 16 inlet~;
#X obj 60 786 outlet~;
#X text 61 810 audio out;
#X text 324 641 amp mod;
#X text 280 533 pitch;
#X obj 97 252 tgl 30 0 empty empty mute 0 -7 0 11 -260097 -1 -1 1 1
;
#X text 53 71 ^trig;
#X text 103 71 ^amp;
#X obj 143 686 expr $f1 / 200;
#X connect 1 0 36 0;
#X connect 2 0 33 0;
#X connect 3 0 29 0;
#X connect 4 0 19 0;
#X connect 5 0 4 0;
#X connect 6 0 12 0;
#X connect 8 0 6 0;
#X connect 11 0 7 0;
#X connect 11 0 15 0;
#X connect 11 0 21 0;
#X connect 12 0 5 0;
#X connect 13 0 14 0;
#X connect 14 0 15 0;
#X connect 15 0 12 1;
#X connect 15 0 16 0;
#X connect 17 0 18 0;
#X connect 18 0 13 0;
#X connect 19 0 26 0;
#X connect 21 0 8 0;
#X connect 22 0 23 0;
#X connect 23 0 25 1;
#X connect 24 0 3 0;
#X connect 25 0 26 1;
#X connect 26 0 24 0;
#X connect 27 0 11 0;
#X connect 28 0 25 0;
#X connect 33 0 3 1;
#X connect 36 0 24 1;
#X coords 0 -1 1 1 90 240 1 50 50;
