#N canvas 144 51 417 899 12;
#X obj 65 162 hsl 60 30 0 127 0 0 empty empty volume -2 -8 0 10 -260097
-1 -1 0 1;
#X obj 65 112 hsl 60 30 0 127 0 0 empty empty amp_mod -2 -8 0 10 -262144
-1 -1 0 1;
#X obj 41 12 inlet~;
#X obj 136 16 inlet~;
#X obj 97 212 tgl 30 0 empty empty mute 0 -7 0 11 -260097 -1 -1 0 1
;
#X text 53 71 ^trig;
#X text 103 71 ^amp;
#X obj 37 710 *~;
#X obj 37 737 *~;
#X text 64 790 https://www.youtube.com/watch?v=nxnCkns-zMo;
#X obj 108 684 expr~ 1 - (((($v1 * -1 ) + 1) / 2) * $v2), f 16;
#X obj 107 746 expr $f1 / 200;
#X obj 38 682 *~;
#X obj 37 834 outlet~;
#X text 36 860 audio out;
#X obj 139 528 bng 15 250 50 0 empty empty empty 17 7 0 10 -262144
-1 -1;
#X msg 139 548 1 \, 0 500;
#X obj 139 572 line~;
#X obj 139 596 pow~ 4;
#X obj 38 384 phasor~ 350;
#X obj 38 409 expr~ ($v1 *2) -1, f 10;
#X obj 126 408 expr~ ($v1 *2) -1, f 10;
#X obj 126 383 phasor~ 800;
#X obj 37 517 +~;
#X obj 130 461 noise~;
#X obj 130 485 *~ 0.25;
#X obj 37 541 hip~ 8000;
#X obj 37 565 hip~ 8000;
#X obj 37 589 hip~ 8000;
#X obj 37 633 *~;
#X obj 37 657 *~ 4;
#X text 40 347 hi-hat: hpfilter saws + noise \, one env, f 22;
#X obj 51 287 threshold~ 0.5 10 0.6 10, f 13;
#X obj 118 648 expr $f1 / 127;
#X obj 239 367 r StartStop;
#X connect 0 0 11 0;
#X connect 1 0 33 0;
#X connect 2 0 32 0;
#X connect 3 0 10 0;
#X connect 4 0 8 1;
#X connect 7 0 8 0;
#X connect 8 0 13 0;
#X connect 10 0 12 1;
#X connect 11 0 7 1;
#X connect 12 0 7 0;
#X connect 15 0 16 0;
#X connect 16 0 17 0;
#X connect 17 0 18 0;
#X connect 18 0 29 1;
#X connect 19 0 20 0;
#X connect 20 0 23 0;
#X connect 21 0 23 0;
#X connect 22 0 21 0;
#X connect 23 0 26 0;
#X connect 24 0 25 0;
#X connect 25 0 23 0;
#X connect 26 0 27 0;
#X connect 27 0 28 0;
#X connect 28 0 29 0;
#X connect 29 0 30 0;
#X connect 30 0 12 0;
#X connect 32 0 15 0;
#X connect 33 0 10 1;
#X connect 34 0 4 0;
#X coords 0 -1 1 1 90 200 1 50 50;
