#N canvas 568 237 402 189 12;
#N canvas 204 199 884 673 FM01 1;
#X obj 601 632 dac~;
#X obj 606 608 *~;
#X obj 637 608 ctlin 8 1;
#X obj 637 632 / 127;
#X floatatom 682 632 5 0 0 0 - - -;
#X obj 328 325 osc~;
#X obj 327 219 ctlin 1 1;
#X obj 327 245 mtof;
#X obj 327 270 line 300;
#X obj 446 345 osc~;
#X obj 445 213 ctlin 5 1;
#X obj 445 291 +;
#X obj 327 299 +~;
#X obj 447 380 *~;
#X floatatom 523 404 5 0 0 0 - - -;
#X floatatom 365 247 5 0 0 0 - - -;
#X obj 478 380 ctlin 6 1;
#X obj 478 404 * 10;
#X obj 445 237 - 63;
#X obj 445 261 t b f;
#X obj 445 315 mtof;
#X floatatom 482 315 5 0 0 0 - - -;
#X obj 624 397 vline~;
#X obj 624 421 pow~ 1;
#X floatatom 789 295 5 0 0 0 - - -;
#X obj 744 295 * 10;
#X obj 744 271 ctlin 4 1;
#X obj 324 610 *~;
#X msg 624 373 1 10 \, 0 \$2 10;
#X obj 624 341 pack f f;
#X obj 744 339 ctlin 3 1;
#X obj 744 387 + 0.1;
#X floatatom 791 386 5 0 0 0 - - -;
#X obj 744 363 / 63;
#X obj 622 275 stripnote;
#X obj 622 250 notein;
#X obj 622 299 sel 1;
#X text 820 270 decay;
#X text 817 339 curve;
#X text 325 197 carrier tune;
#X text 443 191 modulator tune;
#X text 482 358 index;
#X text 711 609 master;
#X text 624 226 trigger;
#X obj 376 300 *~;
#X obj 25 33 hsl 60 30 0 127 0 0 empty empty Tune -2 -8 0 10 -262144
-1 -1 0 1;
#X obj 115 33 hsl 60 30 0 127 0 0 empty empty empty -2 -8 0 10 -262144
-1 -1 0 1;
#X obj 25 93 hsl 60 30 0 127 0 0 empty empty Mod_Tune -2 -8 0 10 -262144
-1 -1 0 1;
#X obj 115 93 hsl 60 30 0 127 0 0 empty empty Index -2 -8 0 10 -262144
-1 -1 0 1;
#X obj 205 33 hsl 60 30 0 127 0 0 empty empty Decay_curve -2 -8 0 10
-262144 -1 -1 0 1;
#X obj 295 33 hsl 60 30 0 127 0 0 empty empty Decay -2 -8 0 10 -262144
-1 -1 0 1;
#X obj 205 93 hsl 60 30 0 127 0 0 empty empty empty -2 -8 0 10 -262144
-1 -1 0 1;
#X obj 295 93 hsl 60 30 0 127 0 0 empty empty Volume -2 -8 0 10 -262144
-1 -1 0 1;
#X floatatom 157 510 5 0 0 0 - - -;
#X floatatom 158 571 5 0 0 0 - - -;
#X obj 158 547 max~ 0;
#X text 311 642 amps stage;
#X text 710 231 envelope generator;
#X connect 1 0 0 0;
#X connect 1 0 0 1;
#X connect 2 0 3 0;
#X connect 2 0 52 0;
#X connect 3 0 4 0;
#X connect 3 0 1 1;
#X connect 5 0 27 0;
#X connect 6 0 7 0;
#X connect 6 0 11 0;
#X connect 6 0 45 0;
#X connect 7 0 8 0;
#X connect 7 0 15 0;
#X connect 8 0 12 1;
#X connect 9 0 13 0;
#X connect 10 0 18 0;
#X connect 10 0 47 0;
#X connect 11 0 20 0;
#X connect 12 0 5 0;
#X connect 13 0 44 0;
#X connect 16 0 17 0;
#X connect 16 0 48 0;
#X connect 17 0 14 0;
#X connect 17 0 13 1;
#X connect 18 0 19 0;
#X connect 19 0 11 0;
#X connect 19 1 11 1;
#X connect 20 0 9 0;
#X connect 20 0 21 0;
#X connect 22 0 23 0;
#X connect 23 0 27 1;
#X connect 23 0 44 1;
#X connect 25 0 24 0;
#X connect 25 0 29 1;
#X connect 26 0 25 0;
#X connect 26 0 50 0;
#X connect 27 0 1 0;
#X connect 28 0 22 0;
#X connect 29 0 28 0;
#X connect 30 0 33 0;
#X connect 30 0 49 0;
#X connect 31 0 32 0;
#X connect 31 0 23 1;
#X connect 33 0 31 0;
#X connect 34 0 36 0;
#X connect 35 0 34 0;
#X connect 35 1 34 1;
#X connect 36 0 29 0;
#X connect 44 0 12 0;
#X connect 53 0 55 0;
#X connect 55 0 54 0;
#X coords 0 -1 1 1 360 130 2 10 10;
#X restore 19 15 pd FM01;
#X text 23 155 basic 2 operator FM;
